<?xml version="1.0" encoding="UTF-8" standalone="no"?>
<!DOCTYPE svg PUBLIC "-//W3C//DTD SVG 1.1//EN" "http://www.w3.org/Graphics/SVG/1.1/DTD/svg11.dtd">
<svg width="100%" height="100%" viewBox="0 0 922 205" version="1.1" xmlns="http://www.w3.org/2000/svg" xmlns:xlink="http://www.w3.org/1999/xlink" xml:space="preserve" xmlns:serif="http://www.serif.com/" style="fill-rule:evenodd;clip-rule:evenodd;stroke-linejoin:round;stroke-miterlimit:2;">
    <g id="Artboard1" transform="matrix(0.678261,0,0,0.314545,-1706.33,0)">
        <rect x="2515.75" y="0" width="1358.27" height="649.606" style="fill:rgb(128,128,128);fill-opacity:0;"/>
        <clipPath id="_clip1">
            <rect x="2515.75" y="0" width="1358.27" height="649.606"/>
        </clipPath>
        <g clip-path="url(#_clip1)">
            <g transform="matrix(1.47436,0,0,3.17919,1418.69,-2352.73)">
                <path d="M1665.35,933.071C1665.35,939.594 1660.07,944.882 1653.54,944.882C1649.74,944.882 1645.53,944.882 1641.73,944.882C1635.21,944.882 1629.92,939.594 1629.92,933.071C1629.92,900.858 1629.92,811.74 1629.92,779.528C1629.92,773.004 1635.21,767.717 1641.73,767.717C1645.53,767.717 1649.74,767.717 1653.54,767.717C1660.07,767.717 1665.35,773.004 1665.35,779.528C1665.35,811.74 1665.35,900.858 1665.35,933.071ZM1074.8,933.071C1074.8,939.594 1069.52,944.882 1062.99,944.882C1059.22,944.882 1055.06,944.882 1051.29,944.882C1044.77,944.882 1039.49,939.6 1039.48,933.081C1039.46,909.777 1039.42,857.458 1039.39,826.792C1039.38,820.523 1041.87,814.51 1046.3,810.075C1050.73,805.641 1056.74,803.15 1063.01,803.15C1080.6,803.15 1104.51,803.15 1122.11,803.15C1128.38,803.15 1134.4,805.647 1138.83,810.089C1143.26,814.532 1145.75,820.556 1145.73,826.831C1145.7,838.324 1145.67,849.799 1145.67,850.371C1145.67,850.386 1145.67,850.401 1145.67,850.416C1145.67,851.702 1145.74,907.992 1145.77,933.056C1145.78,936.191 1144.54,939.199 1142.32,941.417C1140.1,943.635 1137.1,944.882 1133.96,944.882C1130.17,944.882 1125.96,944.882 1122.17,944.882C1115.64,944.882 1110.36,939.594 1110.36,933.071C1110.36,912.62 1110.36,870.845 1110.36,850.394C1110.36,843.871 1105.07,838.583 1098.55,838.583C1094.71,838.583 1090.45,838.583 1086.61,838.583C1080.09,838.583 1074.8,843.871 1074.8,850.394C1074.8,870.845 1074.8,912.62 1074.8,933.071ZM1287.4,933.071C1287.4,939.594 1282.11,944.882 1275.59,944.882C1271.79,944.882 1267.57,944.882 1263.77,944.882C1257.25,944.882 1251.96,939.6 1251.96,933.08C1251.94,910.505 1251.9,860.417 1251.88,826.254C1251.87,818.413 1255.76,811.08 1262.25,806.681C1268.74,802.282 1276.99,801.391 1284.27,804.303C1299.16,810.257 1315.98,816.984 1327.31,821.513C1335.75,824.889 1345.17,824.89 1353.61,821.516C1364.96,816.982 1381.83,810.241 1396.75,804.28C1404.02,801.372 1412.27,802.263 1418.76,806.657C1425.25,811.052 1429.13,818.379 1429.13,826.216C1429.13,860.374 1429.13,910.483 1429.13,933.071C1429.13,939.594 1423.85,944.882 1417.32,944.882C1413.52,944.882 1409.31,944.882 1405.51,944.882C1398.99,944.882 1393.7,939.594 1393.7,933.071L1393.7,862.781C1393.7,858.984 1391.88,855.419 1388.8,853.199C1385.72,850.979 1381.76,850.375 1378.15,851.576C1374.09,852.932 1369.86,854.341 1366.36,855.509C1361.53,857.118 1358.27,861.64 1358.28,866.731C1358.3,881.57 1358.35,916.171 1358.37,933.054C1358.38,936.189 1357.13,939.198 1354.92,941.416C1352.7,943.635 1349.69,944.882 1346.56,944.882C1342.76,944.882 1338.55,944.882 1334.75,944.882C1328.23,944.882 1322.95,939.604 1322.94,933.088C1322.91,916.203 1322.87,881.544 1322.85,866.705C1322.84,861.627 1319.59,857.122 1314.77,855.517C1311.26,854.347 1307.03,852.936 1302.95,851.576C1299.35,850.375 1295.39,850.979 1292.31,853.199C1289.23,855.419 1287.4,858.984 1287.4,862.781C1287.4,881.697 1287.4,916.346 1287.4,933.071ZM933.071,934.528C933.071,940.246 928.435,944.882 922.717,944.882C918.081,944.882 912.627,944.882 907.991,944.882C905.245,944.882 902.612,943.791 900.67,941.849C898.729,939.908 897.638,937.274 897.638,934.528C897.638,913.372 897.638,864.8 897.638,836.503C897.638,832.523 895.356,828.895 891.769,827.171C888.182,825.447 883.924,825.931 880.816,828.418C868.903,837.948 853.581,850.206 845.051,857.03C841.269,860.056 835.896,860.056 832.115,857.03C823.585,850.206 808.262,837.948 796.349,828.418C793.241,825.931 788.983,825.447 785.396,827.171C781.809,828.895 779.528,832.523 779.528,836.503C779.528,864.8 779.528,913.372 779.528,934.528C779.528,937.274 778.437,939.908 776.495,941.849C774.553,943.791 771.92,944.882 769.174,944.882C764.538,944.882 759.084,944.882 754.448,944.882C748.73,944.882 744.094,940.246 744.094,934.528C744.094,903.637 744.094,812.24 744.094,779.528C744.095,773.004 749.382,767.717 755.906,767.717C760.933,767.717 766.677,767.717 771.241,767.717C776.605,767.717 781.809,769.542 785.998,772.893C797.358,781.981 820.757,800.7 832.115,809.786C835.896,812.811 841.269,812.811 845.051,809.786C856.408,800.7 879.808,781.981 891.167,772.893C895.356,769.542 900.56,767.717 905.924,767.717L921.26,767.717C927.783,767.717 933.071,773.004 933.071,779.528C933.071,812.24 933.071,903.637 933.071,934.528ZM1003.94,933.071C1003.94,939.594 998.649,944.882 992.126,944.882C988.325,944.882 984.115,944.882 980.315,944.882C973.792,944.882 968.504,939.594 968.504,933.071L968.504,814.961C968.504,808.438 973.792,803.15 980.315,803.15C984.115,803.15 988.325,803.15 992.126,803.15C998.649,803.15 1003.94,808.438 1003.94,814.961L1003.94,933.071ZM1216.54,928.372C1216.54,932.75 1214.8,936.95 1211.7,940.046C1208.6,943.142 1204.4,944.882 1200.03,944.882L1197.74,944.882C1193.36,944.882 1189.16,943.142 1186.06,940.046C1182.97,936.95 1181.23,932.75 1181.23,928.372L1181.23,819.66C1181.23,815.281 1182.97,811.082 1186.06,807.985C1189.16,804.889 1193.36,803.15 1197.74,803.15L1200.03,803.15C1204.4,803.15 1208.6,804.889 1211.7,807.985C1214.8,811.082 1216.54,815.281 1216.54,819.66L1216.54,928.372ZM1523.7,944.882L1493.98,944.882C1477.68,944.882 1464.47,931.677 1464.45,915.379C1464.43,891.137 1464.4,856.958 1464.38,832.702C1464.38,824.867 1467.48,817.35 1473.02,811.807C1478.56,806.264 1486.07,803.15 1493.91,803.15C1511.97,803.15 1535,803.15 1553.08,803.15C1560.92,803.15 1568.44,806.271 1573.98,811.824C1579.52,817.378 1582.62,824.908 1582.6,832.752C1582.58,841.948 1582.56,849.85 1582.56,850.367C1582.56,850.385 1582.56,850.403 1582.56,850.421C1582.56,851.44 1582.62,881.227 1582.65,898.088C1582.67,904.366 1587.76,909.449 1594.04,909.449L1594.04,909.449C1600.81,909.449 1606.3,914.938 1606.3,921.709C1606.3,923.474 1606.3,925.32 1606.3,927.166C1606.3,936.95 1598.37,944.882 1588.58,944.882L1570.96,944.882C1557.92,944.882 1547.35,934.322 1547.34,921.286C1547.31,899.301 1547.28,867.425 1547.26,850.38C1547.25,843.863 1541.96,838.583 1535.45,838.583C1528.23,838.583 1519.03,838.583 1511.81,838.583C1508.68,838.583 1505.67,839.827 1503.46,842.042C1501.24,844.257 1500,847.261 1500,850.394L1500,897.638C1500,904.161 1505.29,909.449 1511.81,909.449L1523.66,909.449C1530.17,909.449 1535.45,914.713 1535.47,921.22C1535.49,925.018 1535.5,929.228 1535.51,933.031C1535.52,936.17 1534.28,939.185 1532.07,941.408C1529.85,943.632 1526.84,944.882 1523.7,944.882ZM1198.85,779.464C1200.37,776.428 1200.56,772.896 1199.37,769.716C1198.18,766.535 1195.73,763.991 1192.59,762.692C1184.2,759.219 1184.29,759.288 1171.55,754.015C1127.47,735.763 1055.89,735.064 1012.03,753.85C1000.65,758.723 1000.09,759.247 992.437,762.524C989.29,763.872 986.837,766.459 985.659,769.675C984.481,772.89 984.681,776.449 986.213,779.512C986.213,779.512 986.213,779.513 986.213,779.513C989.5,786.088 997.436,788.834 1004.08,785.698C1007.76,783.963 1012.12,781.909 1016.89,779.66C1064.64,757.135 1119.96,757.086 1167.76,779.528C1172.66,781.828 1177.13,783.927 1180.9,785.697C1187.58,788.835 1195.55,786.07 1198.85,779.466C1198.85,779.465 1198.85,779.465 1198.85,779.464Z" style="fill:url(#_Linear2);fill-rule:nonzero;"/>
            </g>
        </g>
    </g>
    <defs>
        <linearGradient id="_Linear2" x1="0" y1="0" x2="1" y2="0" gradientUnits="userSpaceOnUse" gradientTransform="matrix(177.165,543.307,-543.307,177.165,1110.24,625.984)"><stop offset="0" style="stop-color:rgb(255,198,0);stop-opacity:1"/><stop offset="0.5" style="stop-color:rgb(255,113,3);stop-opacity:1"/><stop offset="1" style="stop-color:rgb(248,61,0);stop-opacity:1"/></linearGradient>
    </defs>
</svg>
